<svg xmlns="http://www.w3.org/2000/svg" viewBox="0 0 165.3 122.23"><defs><style>.cls-1{fill:#fff;}</style></defs><title>Asset 1</title><g id="Layer_2" data-name="Layer 2"><g id="Layer_1-2" data-name="Layer 1"><path class="cls-1" d="M115.4,1q6.29,2.55,4.93,9a17.25,17.25,0,0,1-2.72,5.61,5.68,5.68,0,0,1-4.76,2.55q-1.36,0-1-1a8.92,8.92,0,0,1,1.45-3.48,9.53,9.53,0,0,0,1.44-3q.34-2.21-2.55-3.31a21.29,21.29,0,0,0-7.48-1.1A74,74,0,0,0,92,7.56Q84.8,8.84,76.64,10.88T60.15,15.47Q51.82,18,44.51,20.57q-2,3.57-4.68,8.42T34.31,39.52q-2.89,5.7-5.86,11.81t-5.7,12.24q5.1-1.7,10.88-3.32t10.8-2.89q5-1.28,8.33-2.29t3.49-1.7a3.25,3.25,0,0,1,.59-.42,1.78,1.78,0,0,1,.94-.26q1.87,0,1.36,2.38a4.6,4.6,0,0,1-1.53,2.55,16.9,16.9,0,0,1-5.1,2.29q-3.91,1.28-11.56,3.31T20.2,68.68q-2.55,5.44-4.76,10.8t-4,10.28Q9.66,94.69,8.3,98.94a76.29,76.29,0,0,0-2,7.48Q4.9,113,5.49,115.94A3.24,3.24,0,0,0,9,118.83q1.87,0,1.7,1.53-1,1.87-2.21,1.87a18.41,18.41,0,0,1-3.23-.34,5.31,5.31,0,0,1-3.23-2,11.23,11.23,0,0,1-1.87-5.44A32.7,32.7,0,0,1,1,104,93.11,93.11,0,0,1,5.58,88.66q3.23-8.42,7.14-17.26a14,14,0,0,0-4.33,2.21,5.52,5.52,0,0,0-1.45,1.87c-.23.57-.4,1-.51,1.36s-.68.51-1.7.51a1.47,1.47,0,0,1-1.19-.68,2.38,2.38,0,0,1-.17-2Q3.71,72.42,7,70.38a67.5,67.5,0,0,1,7.91-4.08q5.78-12.07,11.9-23.63T37.71,22.95q-10.2,3.4-16.15,5.53t-9.09,3.31Q9.32,33,7.62,33.66c-.91,0-1.3-.28-1.19-.85q.17-1.19,3.4-2.89t8.08-3.66q4.84-2,10.79-4.08T40.6,18q1-1.7,1.79-3.15A18,18,0,0,1,44,12.32a6.27,6.27,0,0,1,2.21-1.78,7.59,7.59,0,0,1,3.4-.68,1.22,1.22,0,0,1,.17,1,5.55,5.55,0,0,1-1.1,2.72,3.65,3.65,0,0,0-.94,1.7Q55.56,12.58,64,9.86T80.29,4.93q7.91-2.21,15-3.57A68.32,68.32,0,0,1,107.92,0,23.86,23.86,0,0,1,115.4,1Z"/><path class="cls-1" d="M69,107.61c.45.45.62.74.51.85s-.34.45-1,.68a6,6,0,0,1-1.87.34,5.14,5.14,0,0,1-3.31-1,6.84,6.84,0,0,1-2-2.46,9.48,9.48,0,0,1-.85-3.14,10.08,10.08,0,0,1,.17-3.23,39.61,39.61,0,0,1,1.79-4.93q1.1-2.55,2-4.59a47,47,0,0,1-4.85,4.16q-2.81,2.13-5.69,4a39.35,39.35,0,0,1-5.61,3.06,12.15,12.15,0,0,1-4.76,1.19,3.16,3.16,0,0,1-2.89-1.87,5.56,5.56,0,0,1-.68-3.74,16.85,16.85,0,0,1,3-6.63,56.69,56.69,0,0,1,5.53-6.8,36.06,36.06,0,0,1,6.29-5.35A10.71,10.71,0,0,1,60.32,76a3.94,3.94,0,0,1,3.15,1.27,9.32,9.32,0,0,1,1.7,2.89,13.68,13.68,0,0,1,.77,3c.11.91.17,1.42.17,1.53a28.12,28.12,0,0,1,3-2.89,4.55,4.55,0,0,1,2-1.19,2.35,2.35,0,0,1,1.7.51,3.54,3.54,0,0,1,.77,1.1,2.69,2.69,0,0,1,.25,1v.25a2,2,0,0,1-.25.43,1.87,1.87,0,0,0-.25.42,55.3,55.3,0,0,0-4.59,8.76,52.66,52.66,0,0,0-2.89,8.58q-1.19,5.1,1.53,5.78c.45,0,.65,0,.6-.09s0-.08.25-.08A1.65,1.65,0,0,1,69,107.61ZM46.55,98.26a9.47,9.47,0,0,0,4.33-1.7,55.3,55.3,0,0,0,5.61-3.91q2.81-2.21,4.93-4t2.46-2.12a2.64,2.64,0,0,1-.34-1.11,11.78,11.78,0,0,0-.6-2,5.62,5.62,0,0,0-1.27-2,3.22,3.22,0,0,0-2.38-.85,11.09,11.09,0,0,0-4.85,3.32,52,52,0,0,0-4.5,5.52,76.44,76.44,0,0,0-4.59,7.48,1.15,1.15,0,0,0-.34.85c-.23.57-.06.85.51.85A2.59,2.59,0,0,0,46.55,98.26Z"/><path class="cls-1" d="M86.16,75.82,89.73,77a1.52,1.52,0,0,1,.68,1.53L85,89.76a13.17,13.17,0,0,0-1.19,2.72c.34-.34.79-.82,1.36-1.45s1.19-1.39,1.87-2.29L91.6,83.3a48.75,48.75,0,0,1,5.61-5.1,10.73,10.73,0,0,1,5.61-2.89h.68a4.89,4.89,0,0,1,2.21.51,4.7,4.7,0,0,1,2.89,2.55q.68,1,.34,4.08a21.74,21.74,0,0,0-.51,2.8,29.65,29.65,0,0,1-.51,3,28,28,0,0,0-1,5.78q-.34,2.89,1,2.89a4,4,0,0,0,2-.76q1.19-.76,3.23-2.12A70.36,70.36,0,0,0,121,87.13q3.57-3.65,7.82-8.58,1.53-1.7,2.38-1.7a.71.71,0,0,1,.51.17,1.15,1.15,0,0,0,.08.51.61.61,0,0,1-.08.51,3.3,3.3,0,0,1-.68,1.53l-.51.51Q128,83,125.17,86t-5.53,5.78a35.1,35.1,0,0,1-2.89,2.89l-2.89,2.55a15.18,15.18,0,0,1-4.42,2.89,8.76,8.76,0,0,1-2.72.51,5.91,5.91,0,0,1-1.87-.34q-2.89-.85-3.06-2.38a8.15,8.15,0,0,1-.34-4.25,25.12,25.12,0,0,1,1-5.44l1.36-6.8a4.35,4.35,0,0,0,.34-1.61V78.54c0-.23-.17-.34-.51-.34a5.26,5.26,0,0,0-2,1,33.84,33.84,0,0,0-2.72,2.21q-1.53,1.36-3.4,3.23t-3.82,3.91q-2,2-4.17,4.42-2,2.38-4,4.76t-3.83,4.76q-1.36,1.53-2,1.53-1.19,0-1.19-.51a4,4,0,0,1-.85-1.7,9.44,9.44,0,0,1-.34-1.87q.17-.51.51-1.79t.85-3.31q.85-2,1.62-4.08T80,86.36a69,69,0,0,1,3.57-7.65Q85,75.82,86.16,75.82Z"/><path class="cls-1" d="M123.39,105.4a5.09,5.09,0,0,0,1.53.17,4.48,4.48,0,0,1,1.36-.17c.68,0,.91.29.68.85a4.33,4.33,0,0,1-.76,1.53,2.4,2.4,0,0,1-2.12,1.19,4,4,0,0,1-3.32-1.36,7.12,7.12,0,0,1-1.44-3.4,18,18,0,0,1-.08-4.68,52,52,0,0,1,.76-5.18,48.78,48.78,0,0,1,2-7.14q1.36-3.74,2.72-6.8a34.36,34.36,0,0,1,2.72-5.1,5.75,5.75,0,0,1,2.38-2.38,4.31,4.31,0,0,1,2.55.85,2,2,0,0,1,.85,2.21,16.6,16.6,0,0,0-1.1,2.38q-1.11,2.55-2.72,6.46t-3.23,8.58a57.48,57.48,0,0,0-2.29,8.42A21.5,21.5,0,0,0,123.39,105.4ZM142.26,52a2.56,2.56,0,0,1,2.13,1.53,4.89,4.89,0,0,1,.08,2.72,6.1,6.1,0,0,1-2.12,3.65,5,5,0,0,1-3,1.27,2.91,2.91,0,0,1-2.46-1.27,4.22,4.22,0,0,1-.59-3.31,6.35,6.35,0,0,1,2.13-3.4,4.8,4.8,0,0,1,3-1.36.68.68,0,0,1,.42.08C141.89,52,142,52,142.26,52Z"/><path class="cls-1" d="M139.7,92.65a7.72,7.72,0,0,0-1.19,2.72q-.17.85-.25,1.53a10.63,10.63,0,0,0-.08,1.36,5.71,5.71,0,0,0,.68,2.55,2.64,2.64,0,0,0,2.38,1,12.57,12.57,0,0,0,5-1.36,43.62,43.62,0,0,0,6-3.4q3.06-2,5.87-4.25a35.1,35.1,0,0,0,4.33-3.91q1.53-1.7,2.21-1.7.85,0,.51,1.53a3,3,0,0,0-.25.77,1.5,1.5,0,0,1-.42.77,39,39,0,0,1-5.35,5,70.94,70.94,0,0,1-6.89,4.85,56.77,56.77,0,0,1-7.05,3.74,18.53,18.53,0,0,1-6,1.7H138a7.25,7.25,0,0,1-4.08-1,7.57,7.57,0,0,1-2-3.74,9.22,9.22,0,0,1,.17-3.91l.17-1a20.28,20.28,0,0,1,.85-2.63q.51-1.27,1.19-2.63,1-1.7,2.13-3.4a27.7,27.7,0,0,1,2.63-3.4q1.53-1.87,3.15-3.48l3-3a27.73,27.73,0,0,1,6-4.42,7.88,7.88,0,0,1,3.23-1,3,3,0,0,1,1.19.17,4.37,4.37,0,0,1,2.72,5.27A20.38,20.38,0,0,1,154.66,85a25.51,25.51,0,0,1-7.14,6.29,10.8,10.8,0,0,1-5.44,1.7A5.8,5.8,0,0,1,139.7,92.65Zm1.7-2.89a20.13,20.13,0,0,0,2.63-.85,11.72,11.72,0,0,0,2.64-1.53,36.85,36.85,0,0,0,4.25-3.91,16.14,16.14,0,0,0,2.55-4.25l.17-.68c.11-1,0-1.53-.34-1.53q-.85,0-2.46,1.7t-3.15,3.57L143.44,87A22.59,22.59,0,0,0,141.4,89.76Z"/></g></g></svg>